#N canvas -682 -2160 3840 2106 12;
#N canvas 1226 -2160 1918 2096 impulse 0;
#X obj 15 59 inlet;
#X obj 15 82 t b;
#X obj 14 170 biquad~ 0 0 1 -1 0;
#X obj 24 290 *~;
#X obj 165 50 loadbang;
#X obj 221 79 inlet;
#X msg 221 104 -0.25 \, 0.25 \$1;
#X obj 161 171 line~;
#X obj 161 196 cos~;
#X obj 161 220 *~ 0.1;
#X obj 334 40 inlet;
#X floatatom 335 67 5 0 0 0 - - - 0;
#X obj 336 88 mtof;
#X obj 338 158 *~;
#X obj 327 202 *~;
#X obj 291 203 *~;
#X obj 162 253 *~;
#X obj 21 341 outlet~;
#X obj 338 115 osc~ 440;
#X obj 53 113 del 3;
#X obj 163 281 hip~ 5;
#X msg 165 74 -0.25;
#X obj 15 143 1;
#X obj 47 142 0;
#X connect 0 0 1 0;
#X connect 1 0 19 0;
#X connect 1 0 22 0;
#X connect 2 0 3 0;
#X connect 3 0 17 0;
#X connect 4 0 21 0;
#X connect 5 0 6 0;
#X connect 6 0 7 0;
#X connect 7 0 8 0;
#X connect 8 0 9 0;
#X connect 9 0 16 0;
#X connect 10 0 11 0;
#X connect 11 0 12 0;
#X connect 12 0 18 0;
#X connect 13 0 14 1;
#X connect 13 0 15 0;
#X connect 13 0 15 1;
#X connect 14 0 16 1;
#X connect 15 0 16 1;
#X connect 16 0 20 0;
#X connect 18 0 13 0;
#X connect 18 0 13 1;
#X connect 18 0 14 0;
#X connect 19 0 23 0;
#X connect 20 0 17 0;
#X connect 21 0 7 0;
#X connect 22 0 2 0;
#X connect 22 0 3 1;
#X connect 23 0 2 0;
#X connect 23 0 3 1;
#X restore 243 1390 pd impulse;
#X obj 644 2005 dac~ 1 2;
#X obj 376 1536 vcf~;
#X floatatom 373 1461 5 0 0 0 - - - 0;
#X obj 587 1332 loadbang;
#X msg 587 1354 5;
#X floatatom 586 1376 5 0 0 0 - - - 0;
#X obj 369 1384 random 4000;
#X obj 453 1275 hsl 162 19 0 10 0 0 empty empty empty -2 -10 0 12 #fcfcfc #000000 #000000 0 1;
#X obj 371 1412 + 5000;
#N canvas 797 595 965 614 randomPanner 0;
#X obj 44 61 inlet~ signal;
#X floatatom 149 110 5 0 0 0 - - - 0;
#X obj 149 133 + 0.75;
#X msg 149 157 \$1 10;
#X obj 149 181 line~;
#X obj 151 210 cos~;
#X obj 132 247 *~;
#X msg 98 158 \$1 10;
#X obj 98 182 line~;
#X obj 99 210 cos~;
#X obj 132 271 outlet~ right;
#X obj 30 246 *~;
#X obj 30 270 outlet~ left;
#X obj 150 86 / 4;
#X floatatom 284 94 5 0 0 0 - - - 0;
#X obj 149 62 inlet control;
#X connect 0 0 6 0;
#X connect 0 0 11 0;
#X connect 1 0 2 0;
#X connect 1 0 7 0;
#X connect 2 0 3 0;
#X connect 3 0 4 0;
#X connect 4 0 5 0;
#X connect 5 0 6 1;
#X connect 6 0 10 0;
#X connect 7 0 8 0;
#X connect 8 0 9 0;
#X connect 9 0 11 1;
#X connect 11 0 12 0;
#X connect 13 0 1 0;
#X connect 15 0 13 0;
#X connect 15 0 14 0;
#X restore 394 1727 pd randomPanner;
#X obj 376 1560 *~ 2;
#X obj 135 1437 t b;
#X obj 162 1488 /;
#X floatatom 214 1523 5 0 0 0 - - - 0;
#X obj 134 1312 loadbang;
#X msg 134 1336 1;
#X obj 21 50 tgl 19 0 empty empty empty 0 -10 0 12 #fcfcfc #000000 #000000 0 1;
#X obj 22 99 bng 19 250 50 0 empty empty empty 0 -10 0 12 #fcfcfc #000000 #000000;
#X obj 22 125 int 1;
#X floatatom 781 244 5 0 0 0 - - - 0;
#X obj 66 125 + 1;
#X obj 22 178 + 1;
#X obj 305 487 sel 1;
#X obj 350 487 sel 2;
#X obj 395 487 sel 3;
#X obj 439 487 sel 4;
#X obj 485 487 sel 5;
#X obj 532 487 sel 6;
#X obj 577 487 sel 7;
#X obj 621 486 sel 8;
#X obj 305 509 bng 19 250 50 0 empty empty empty 0 -10 0 12 #fcfcfc #000000 #000000;
#X obj 350 510 bng 19 250 50 0 empty empty empty 0 -10 0 12 #fcfcfc #000000 #000000;
#X obj 395 512 bng 19 250 50 0 empty empty empty 0 -10 0 12 #fcfcfc #000000 #000000;
#X obj 452 511 bng 19 250 50 0 empty empty empty 0 -10 0 12 #fcfcfc #000000 #000000;
#X obj 494 510 bng 19 250 50 0 empty empty empty 0 -10 0 12 #fcfcfc #000000 #000000;
#X obj 539 510 bng 19 250 50 0 empty empty empty 0 -10 0 12 #fcfcfc #000000 #000000;
#X obj 579 509 bng 19 250 50 0 empty empty empty 0 -10 0 12 #fcfcfc #000000 #000000;
#X obj 622 510 bng 19 250 50 0 empty empty empty 0 -10 0 12 #fcfcfc #000000 #000000;
#X obj 306 533 s one;
#X obj 659 534 s eight;
#X obj 600 535 s seven;
#X obj 555 533 s six;
#X obj 505 535 s five;
#X obj 454 533 s four;
#X obj 351 533 s two;
#X obj 396 533 s three;
#X obj 182 1017 bng 19 250 50 0 empty empty empty 0 -10 0 12 #fcfcfc #000000 #000000;
#X obj 204 1017 tgl 19 0 empty empty empty 0 -10 0 12 #fcfcfc #000000 #000000 0 1;
#X obj 182 1044 spigot;
#X obj 182 1069 bng 19 250 50 0 empty empty empty 0 -10 0 12 #fcfcfc #000000 #000000;
#X obj 237 1017 bng 19 250 50 0 empty empty empty 0 -10 0 12 #fcfcfc #000000 #000000;
#X obj 259 1017 tgl 19 0 empty empty empty 0 -10 0 12 #fcfcfc #000000 #000000 0 1;
#X obj 237 1044 spigot;
#X obj 237 1069 bng 19 250 50 0 empty empty empty 0 -10 0 12 #fcfcfc #000000 #000000;
#X obj 291 1017 bng 19 250 50 0 empty empty empty 0 -10 0 12 #fcfcfc #000000 #000000;
#X obj 313 1017 tgl 19 0 empty empty empty 0 -10 0 12 #fcfcfc #000000 #000000 0 1;
#X obj 291 1044 spigot;
#X obj 291 1069 bng 19 250 50 0 empty empty empty 0 -10 0 12 #fcfcfc #000000 #000000;
#X obj 349 1016 bng 19 250 50 0 empty empty empty 0 -10 0 12 #fcfcfc #000000 #000000;
#X obj 371 1016 tgl 19 0 empty empty empty 0 -10 0 12 #fcfcfc #000000 #000000 0 1;
#X obj 349 1043 spigot;
#X obj 349 1068 bng 19 250 50 0 empty empty empty 0 -10 0 12 #fcfcfc #000000 #000000;
#X obj 400 1016 bng 19 250 50 0 empty empty empty 0 -10 0 12 #fcfcfc #000000 #000000;
#X obj 422 1016 tgl 19 0 empty empty empty 0 -10 0 12 #fcfcfc #000000 #000000 0 1;
#X obj 400 1043 spigot;
#X obj 400 1068 bng 19 250 50 0 empty empty empty 0 -10 0 12 #fcfcfc #000000 #000000;
#X obj 452 1015 bng 19 250 50 0 empty empty empty 0 -10 0 12 #fcfcfc #000000 #000000;
#X obj 474 1015 tgl 19 0 empty empty empty 0 -10 0 12 #fcfcfc #000000 #000000 0 1;
#X obj 452 1042 spigot;
#X obj 452 1067 bng 19 250 50 0 empty empty empty 0 -10 0 12 #fcfcfc #000000 #000000;
#X obj 504 1016 bng 19 250 50 0 empty empty empty 0 -10 0 12 #fcfcfc #000000 #000000;
#X obj 526 1016 tgl 19 0 empty empty empty 0 -10 0 12 #fcfcfc #000000 #000000 0 1;
#X obj 504 1043 spigot;
#X obj 504 1068 bng 19 250 50 0 empty empty empty 0 -10 0 12 #fcfcfc #000000 #000000;
#X obj 563 1016 bng 19 250 50 0 empty empty empty 0 -10 0 12 #fcfcfc #000000 #000000;
#X obj 585 1016 tgl 19 0 empty empty empty 0 -10 0 12 #fcfcfc #000000 #000000 0 1;
#X obj 563 1043 spigot;
#X obj 563 1068 bng 19 250 50 0 empty empty empty 0 -10 0 12 #fcfcfc #000000 #000000;
#X obj 182 989 r one;
#X obj 237 989 r two;
#X obj 291 989 r three;
#X obj 349 988 r four;
#X obj 400 988 r five;
#X obj 452 987 r six;
#X obj 504 988 r seven;
#X obj 563 988 r eight;
#X obj 22 151 % 16;
#X obj 619 1012 bng 19 250 50 0 empty empty empty 0 -10 0 12 #fcfcfc #000000 #000000;
#X obj 641 1012 tgl 19 0 empty empty empty 0 -10 0 12 #fcfcfc #000000 #000000 0 1;
#X obj 619 1039 spigot;
#X obj 619 1064 bng 19 250 50 0 empty empty empty 0 -10 0 12 #fcfcfc #000000 #000000;
#X obj 674 1012 bng 19 250 50 0 empty empty empty 0 -10 0 12 #fcfcfc #000000 #000000;
#X obj 696 1012 tgl 19 0 empty empty empty 0 -10 0 12 #fcfcfc #000000 #000000 0 1;
#X obj 674 1039 spigot;
#X obj 674 1064 bng 19 250 50 0 empty empty empty 0 -10 0 12 #fcfcfc #000000 #000000;
#X obj 728 1012 bng 19 250 50 0 empty empty empty 0 -10 0 12 #fcfcfc #000000 #000000;
#X obj 750 1012 tgl 19 0 empty empty empty 0 -10 0 12 #fcfcfc #000000 #000000 0 1;
#X obj 728 1039 spigot;
#X obj 728 1064 bng 19 250 50 0 empty empty empty 0 -10 0 12 #fcfcfc #000000 #000000;
#X obj 793 1013 bng 19 250 50 0 empty empty empty 0 -10 0 12 #fcfcfc #000000 #000000;
#X obj 815 1013 tgl 19 0 empty empty empty 0 -10 0 12 #fcfcfc #000000 #000000 0 1;
#X obj 793 1040 spigot;
#X obj 793 1065 bng 19 250 50 0 empty empty empty 0 -10 0 12 #fcfcfc #000000 #000000;
#X obj 863 1010 bng 19 250 50 0 empty empty empty 0 -10 0 12 #fcfcfc #000000 #000000;
#X obj 885 1010 tgl 19 0 empty empty empty 0 -10 0 12 #fcfcfc #000000 #000000 0 1;
#X obj 863 1037 spigot;
#X obj 863 1062 bng 19 250 50 0 empty empty empty 0 -10 0 12 #fcfcfc #000000 #000000;
#X obj 943 1009 bng 19 250 50 0 empty empty empty 0 -10 0 12 #fcfcfc #000000 #000000;
#X obj 965 1009 tgl 19 0 empty empty empty 0 -10 0 12 #fcfcfc #000000 #000000 0 1;
#X obj 943 1036 spigot;
#X obj 943 1061 bng 19 250 50 0 empty empty empty 0 -10 0 12 #fcfcfc #000000 #000000;
#X obj 1023 1011 bng 19 250 50 0 empty empty empty 0 -10 0 12 #fcfcfc #000000 #000000;
#X obj 1045 1011 tgl 19 0 empty empty empty 0 -10 0 12 #fcfcfc #000000 #000000 0 1;
#X obj 1023 1038 spigot;
#X obj 1023 1063 bng 19 250 50 0 empty empty empty 0 -10 0 12 #fcfcfc #000000 #000000;
#X obj 1106 1009 bng 19 250 50 0 empty empty empty 0 -10 0 12 #fcfcfc #000000 #000000;
#X obj 1128 1009 tgl 19 0 empty empty empty 0 -10 0 12 #fcfcfc #000000 #000000 0 1;
#X obj 1106 1036 spigot;
#X obj 1106 1061 bng 19 250 50 0 empty empty empty 0 -10 0 12 #fcfcfc #000000 #000000;
#X obj 738 506 bng 19 250 50 0 empty empty empty 0 -10 0 12 #fcfcfc #000000 #000000;
#X obj 807 504 bng 19 250 50 0 empty empty empty 0 -10 0 12 #fcfcfc #000000 #000000;
#X obj 859 505 bng 19 250 50 0 empty empty empty 0 -10 0 12 #fcfcfc #000000 #000000;
#X obj 926 504 bng 19 250 50 0 empty empty empty 0 -10 0 12 #fcfcfc #000000 #000000;
#X obj 995 499 bng 19 250 50 0 empty empty empty 0 -10 0 12 #fcfcfc #000000 #000000;
#X obj 1083 498 bng 19 250 50 0 empty empty empty 0 -10 0 12 #fcfcfc #000000 #000000;
#X obj 1185 495 bng 19 250 50 0 empty empty empty 0 -10 0 12 #fcfcfc #000000 #000000;
#X obj 1262 496 bng 19 250 50 0 empty empty empty 0 -10 0 12 #fcfcfc #000000 #000000;
#X obj 738 484 sel 9;
#X obj 807 481 sel 10;
#X obj 859 480 sel 11;
#X obj 913 480 sel 12;
#X obj 1076 475 sel 14;
#X obj 1183 473 sel 15;
#X obj 1261 472 sel 16;
#X obj 739 530 s nine;
#X obj 808 527 s ten;
#X obj 860 526 s eleven;
#X obj 928 526 s twelve;
#X obj 997 525 s thirteen;
#X obj 1099 521 s fourteen;
#X obj 1187 519 s fifteen;
#X obj 1261 517 s sixteen;
#X obj 619 984 r nine;
#X obj 674 984 r ten;
#X obj 728 989 r eleven;
#X obj 793 985 r twelve;
#X obj 863 982 r thirteen;
#X obj 943 981 r fourteen;
#X obj 1023 983 r fifteen;
#X obj 1106 981 r sixteen;
#X obj 987 476 sel 13;
#N canvas 0 50 450 250 (subpatch) 0;
#X array array1 400 float 1;
#A 0 -0.00132281 -0.00132254 -0.00132227 -0.00132197 -0.0013217 -0.00132141 -0.00132114 -0.00132084 -0.00132057 -0.00132027 -0.00132 -0.00131971 -0.00131947 -0.00131911 -0.00131893 -0.00131854 -0.00131837 -0.00131801 -0.00131777 -0.00131747 -0.0013172 -0.00131691 -0.00131664 -0.00131634 -0.00131607 -0.0013158 -0.00131547 -0.00131527 -0.00131491 -0.0013147 -0.00131437 -0.0013141 -0.00131384 -0.00131354 -0.00131327 -0.001313 -0.00131267 -0.00131246 -0.00131208 -0.00131193 -0.00131151 -0.00131136 -0.00131097 -0.00131077 -0.00131047 -0.00131014 -0.00130996 -0.00130957 -0.00130939 -0.00130904 -0.0013088 -0.0013085 -0.00130823 -0.00130796 -0.00130767 -0.0013074 -0.00130713 -0.0013068 -0.00130662 -0.00130624 -0.00130606 -0.0013057 -0.00130546 -0.00130516 -0.00143561 -0.00143546 -0.00143501 -0.0014348 -0.00143442 -0.00143418 -0.00143382 -0.00143355 -0.00143325 -0.00143287 -0.00143269 -0.00143224 -0.00143209 -0.00143167 -0.00143141 -0.00143111 -0.00143078 -0.00143048 -0.00143021 -0.00142986 -0.00142962 -0.00142923 -0.00142899 -0.00142863 -0.00142834 -0.00142804 -0.00142774 -0.00142741 -0.00142717 -0.00142679 -0.00142658 -0.00142619 -0.00142595 -0.00142562 -0.0014253 -0.001425 -0.0014247 -0.0014244 -0.00142407 -0.00142381 -0.00142348 -0.00142321 -0.00142288 -0.00142258 -0.00142232 -0.00142193 -0.00142172 -0.00142133 -0.00142106 -0.00142077 -0.00142044 -0.00142017 -0.00141984 -0.00141957 -0.00141925 -0.00141898 -0.00141862 -0.00141838 -0.00141805 -0.0014177 -0.00141752 -0.00141704 -0.00141692 -0.0014165 -0.00141621 -0.00141597 -0.00141558 -0.00141537 -0.00141498 -0.00141478 -0.00141436 -0.00141415 -0.00141379 -0.00141349 -0.00141323 -0.00141287 -0.00141266 -0.00141227 -0.00141203 -0.00141168 -0.00141144 -0.00141108 -0.00141084 -0.00141048 -0.00141022 -0.00140992 -0.00140956 -0.00140935 -0.00140893 -0.00140873 -0.00140834 -0.00140813 -0.00140777 -0.00140753 -0.00140715 -0.00140694 -0.00140655 -0.00140634 -0.00140592 -0.00140575 -0.00140533 -0.00140515 -0.00140473 -0.00140452 -0.00140417 -0.0014039 -0.0014036 -0.0014033 -0.001403 -0.00140274 -0.00140238 -0.00140214 -0.00140178 -0.00140154 -0.00140122 -0.00140089 -0.00140065 -0.00140029 -0.00140002 -0.0013997 -0.00139943 -0.00139913 -0.0013988 -0.00139853 -0.00139824 -0.00139791 -0.00139767 -0.00139731 -0.00139707 -0.00139675 -0.00139645 -0.00139618 -0.00139579 -0.00139561 -0.0013952 -0.00139499 -0.0013946 -0.00139439 -0.00139403 -0.0013938 -0.00139344 -0.0013932 -0.00139284 -0.0013926 -0.00139228 -0.00139198 -0.00139171 -0.00139135 -0.00139111 -0.00139078 -0.00139046 -0.00139022 -0.00138986 -0.00138962 -0.00138929 -0.001389 -0.00138873 -0.0013884 -0.00138813 -0.00138783 -0.00138751 -0.00138727 -0.00138691 -0.00138667 -0.00138634 -0.00138602 -0.00138578 -0.00138542 -0.00138518 -0.00138482 -0.00138462 -0.00138423 -0.00138402 -0.00138366 -0.00138339 -0.0013831 -0.00138283 -0.00138247 -0.00138229 -0.00138187 -0.00138167 -0.00138134 -0.00138104 -0.00138077 -0.00138047 -0.00138012 -0.00137991 -0.00137955 -0.00137925 -0.00137901 -0.00137863 -0.00137845 -0.00137803 -0.00137785 -0.00137749 -0.00137722 -0.00137696 -0.0013766 -0.00137639 -0.00137603 -0.00137576 -0.0013755 -0.00137514 -0.0013749 -0.00137457 -0.0013743 -0.00137401 -0.00137374 -0.00137338 -0.00137311 -0.00137281 -0.00137252 -0.00137222 -0.00137195 -0.00137162 -0.00137138 -0.00137103 -0.00137082 -0.00137046 -0.00137019 -0.00136989 -0.0013696 -0.0013693 -0.00136906 -0.0013687 -0.00136846 -0.00136814 -0.00136787 -0.00136757 -0.0013673 -0.00136694 -0.00136673 -0.00136635 -0.00136614 -0.00136578 -0.00136554 -0.00136518 -0.00136498 -0.00136462 -0.00136435 -0.00136408 -0.00136372 -0.00136355 -0.00136313 -0.00136295 -0.00136259 -0.00136232 -0.00136203 -0.00136176 -0.00136143 -0.00136119 -0.00136086 -0.0013606 -0.0013603 -0.00136 -0.00135973 -0.00135943 -0.00135913 -0.00135887 -0.00135851 -0.0013583 -0.00135794 -0.00135764 -0.00135741 -0.00135705 -0.00135684 -0.00135648 -0.00135624 -0.00135595 -0.00135565 -0.00135538 -0.00135508 -0.00135478 -0.00135452 -0.00135419 -0.00135395 -0.00135362 -0.00135338 -0.00135306 -0.00135279 -0.00135249 -0.00135222 -0.00135189 -0.00135168 -0.0013513 -0.00135109 -0.00135076 -0.00135046 -0.00135022 -0.00134987 -0.00134963 -0.00134933 -0.00134903 -0.00134876 -0.00134847 -0.00134814 -0.00134793 -0.00134754 -0.0013473 -0.00134701 -0.00134668 -0.00134647 -0.00134611 -0.00134584 -0.0013456 -0.00134522 -0.00134504 -0.00134468 -0.00134441 -0.00134414 -0.00134382 -0.00134358 -0.00134328 -0.00134295 -0.00134274 -0.00134239 -0.00134215 -0.00134185 -0.00134152 -0.00134131 -0.00134093 -0.00134075 -0.00134039 -0.00134015 -0.00133985 -0.00133955 -0.00133929 -0.00133899 -0.00133869 -0.00133845 -0.00133812 -0.00133786 -0.00133759 -0.00133726 -0.00133702 -0.00133669;
#X coords 0 1 399 -1 200 140 1;
#X restore 1148 206 graph;
#X obj 22 74 metro;
#X obj 250 71 + 1;
#X floatatom 250 94 5 0 0 0 - - - 0;
#X obj 250 118 sel 1;
#X obj 250 140 bng 19 250 50 0 empty empty empty 0 -10 0 12 #fcfcfc #000000 #000000;
#X obj 250 162 s generate;
#X obj 184 868 r generate;
#X obj 184 892 bng 19 250 50 0 empty empty empty 0 -10 0 12 #fcfcfc #000000 #000000;
#X obj 184 915 random 100;
#X floatatom 184 940 5 0 0 0 - - - 0;
#X obj 271 865 r generate;
#X obj 271 889 bng 19 250 50 0 empty empty empty 0 -10 0 12 #fcfcfc #000000 #000000;
#X obj 271 912 random 100;
#X floatatom 271 937 5 0 0 0 - - - 0;
#X obj 357 866 r generate;
#X obj 357 890 bng 19 250 50 0 empty empty empty 0 -10 0 12 #fcfcfc #000000 #000000;
#X obj 357 913 random 100;
#X floatatom 357 938 5 0 0 0 - - - 0;
#X obj 447 860 r generate;
#X obj 447 884 bng 19 250 50 0 empty empty empty 0 -10 0 12 #fcfcfc #000000 #000000;
#X obj 447 907 random 100;
#X floatatom 447 932 5 0 0 0 - - - 0;
#X obj 535 863 r generate;
#X obj 535 887 bng 19 250 50 0 empty empty empty 0 -10 0 12 #fcfcfc #000000 #000000;
#X obj 535 910 random 100;
#X floatatom 535 935 5 0 0 0 - - - 0;
#X obj 625 858 r generate;
#X obj 625 882 bng 19 250 50 0 empty empty empty 0 -10 0 12 #fcfcfc #000000 #000000;
#X obj 625 905 random 100;
#X floatatom 625 930 5 0 0 0 - - - 0;
#X obj 714 855 r generate;
#X obj 714 879 bng 19 250 50 0 empty empty empty 0 -10 0 12 #fcfcfc #000000 #000000;
#X obj 714 902 random 100;
#X floatatom 714 927 5 0 0 0 - - - 0;
#X obj 804 856 r generate;
#X obj 804 880 bng 19 250 50 0 empty empty empty 0 -10 0 12 #fcfcfc #000000 #000000;
#X obj 804 903 random 100;
#X floatatom 804 928 5 0 0 0 - - - 0;
#X obj 892 851 r generate;
#X obj 892 875 bng 19 250 50 0 empty empty empty 0 -10 0 12 #fcfcfc #000000 #000000;
#X obj 892 898 random 100;
#X floatatom 892 923 5 0 0 0 - - - 0;
#X obj 976 850 r generate;
#X obj 976 874 bng 19 250 50 0 empty empty empty 0 -10 0 12 #fcfcfc #000000 #000000;
#X obj 976 897 random 100;
#X floatatom 976 922 5 0 0 0 - - - 0;
#X obj 1073 854 r generate;
#X obj 1073 878 bng 19 250 50 0 empty empty empty 0 -10 0 12 #fcfcfc #000000 #000000;
#X obj 1073 901 random 100;
#X floatatom 1073 926 5 0 0 0 - - - 0;
#X obj 1154 852 r generate;
#X obj 1154 876 bng 19 250 50 0 empty empty empty 0 -10 0 12 #fcfcfc #000000 #000000;
#X obj 1154 899 random 100;
#X floatatom 1154 924 5 0 0 0 - - - 0;
#X obj 1236 851 r generate;
#X obj 1236 875 bng 19 250 50 0 empty empty empty 0 -10 0 12 #fcfcfc #000000 #000000;
#X obj 1236 898 random 100;
#X floatatom 1236 923 5 0 0 0 - - - 0;
#X obj 1322 852 r generate;
#X obj 1322 876 bng 19 250 50 0 empty empty empty 0 -10 0 12 #fcfcfc #000000 #000000;
#X obj 1322 899 random 100;
#X floatatom 1322 924 5 0 0 0 - - - 0;
#X obj 1403 853 r generate;
#X obj 1403 877 bng 19 250 50 0 empty empty empty 0 -10 0 12 #fcfcfc #000000 #000000;
#X obj 1403 900 random 100;
#X floatatom 1403 925 5 0 0 0 - - - 0;
#X obj 1485 850 r generate;
#X obj 1485 874 bng 19 250 50 0 empty empty empty 0 -10 0 12 #fcfcfc #000000 #000000;
#X obj 1485 897 random 100;
#X floatatom 1485 922 5 0 0 0 - - - 0;
#X obj 250 49 % 16;
#X obj 183 1122 s click;
#X obj 398 23 hsl 600 40 400 20 0 0 empty empty empty -2 -10 0 20 #000000 #ffffff #000000 0 1;
#X obj 723 1514 tabwrite~ array1;
#X obj 735 1469 metro 10;
#X obj 753 1412 tgl 19 0 empty empty empty 0 -10 0 12 #fcfcfc #000000 #000000 0 1;
#X obj 185 661 vsl 19 162 0 100 0 0 empty empty empty 0 -9 0 12 #fcfcfc #000000 #000000 0 1;
#X obj 185 965 <;
#X floatatom 185 830 5 0 0 0 - - - 24;
#X obj 270 660 vsl 19 162 0 100 0 0 empty empty empty 0 -9 0 12 #fcfcfc #000000 #000000 0 1;
#X floatatom 270 829 5 0 0 0 - - - 24;
#X obj 356 652 vsl 19 162 0 100 0 0 empty empty empty 0 -9 0 12 #fcfcfc #000000 #000000 0 1;
#X floatatom 356 821 5 0 0 0 - - - 24;
#X obj 441 651 vsl 19 162 0 100 0 0 empty empty empty 0 -9 0 12 #fcfcfc #000000 #000000 0 1;
#X floatatom 441 820 5 0 0 0 - - - 24;
#X obj 535 642 vsl 19 162 0 100 0 0 empty empty empty 0 -9 0 12 #fcfcfc #000000 #000000 0 1;
#X floatatom 535 811 5 0 0 0 - - - 24;
#X obj 620 641 vsl 19 162 0 100 0 0 empty empty empty 0 -9 0 12 #fcfcfc #000000 #000000 0 1;
#X floatatom 620 810 5 0 0 0 - - - 24;
#X obj 706 633 vsl 19 162 0 100 0 0 empty empty empty 0 -9 0 12 #fcfcfc #000000 #000000 0 1;
#X floatatom 706 802 5 0 0 0 - - - 24;
#X obj 791 632 vsl 19 162 0 100 0 0 empty empty empty 0 -9 0 12 #fcfcfc #000000 #000000 0 1;
#X floatatom 791 801 5 0 0 0 - - - 24;
#X obj 890 633 vsl 19 162 0 100 0 0 empty empty empty 0 -9 0 12 #fcfcfc #000000 #000000 0 1;
#X floatatom 890 802 5 0 0 0 - - - 24;
#X obj 976 618 vsl 19 162 0 100 0 0 empty empty empty 0 -9 0 12 #fcfcfc #000000 #000000 0 1;
#X floatatom 976 787 5 0 0 0 - - - 24;
#X obj 1065 644 vsl 19 162 0 100 0 0 empty empty empty 0 -9 0 12 #fcfcfc #000000 #000000 0 1;
#X floatatom 1065 813 5 0 0 0 - - - 24;
#X obj 1150 643 vsl 19 162 0 100 0 0 empty empty empty 0 -9 0 12 #fcfcfc #000000 #000000 0 1;
#X floatatom 1150 812 5 0 0 0 - - - 24;
#X obj 1244 634 vsl 19 162 0 100 0 0 empty empty empty 0 -9 0 12 #fcfcfc #000000 #000000 0 1;
#X floatatom 1244 803 5 0 0 0 - - - 24;
#X obj 1329 633 vsl 19 162 0 100 0 0 empty empty empty 0 -9 0 12 #fcfcfc #000000 #000000 0 1;
#X floatatom 1329 802 5 0 0 0 - - - 24;
#X obj 1415 625 vsl 19 162 0 100 0 0 empty empty empty 0 -9 0 12 #fcfcfc #000000 #000000 0 1;
#X floatatom 1415 794 5 0 0 0 - - - 24;
#X obj 1500 624 vsl 19 162 0 100 0 0 empty empty empty 0 -9 0 12 #fcfcfc #000000 #000000 0 1;
#X floatatom 1500 793 5 0 0 0 - - - 24;
#X obj 271 958 <;
#X obj 357 959 <;
#X obj 447 953 <;
#X obj 535 956 <;
#X obj 625 952 <;
#X obj 714 948 <;
#X obj 804 949 <;
#X obj 892 944 <;
#X obj 976 943 <;
#X obj 1073 947 <;
#X obj 1154 945 <;
#X obj 1236 944 <;
#X obj 1322 945 <;
#X obj 1403 946 <;
#X obj 1484 943 <;
#X obj 395 80 s metroValue;
#X obj 1672 815 bng 19 250 50 0 empty empty empty 0 -10 0 12 #fcfcfc #000000 #000000;
#X obj 1694 815 tgl 19 0 empty empty empty 0 -10 0 12 #fcfcfc #000000 #000000 0 1;
#X obj 1672 842 spigot;
#X obj 1672 867 bng 19 250 50 0 empty empty empty 0 -10 0 12 #fcfcfc #000000 #000000;
#X obj 1727 815 bng 19 250 50 0 empty empty empty 0 -10 0 12 #fcfcfc #000000 #000000;
#X obj 1749 815 tgl 19 0 empty empty empty 0 -10 0 12 #fcfcfc #000000 #000000 0 1;
#X obj 1727 842 spigot;
#X obj 1727 867 bng 19 250 50 0 empty empty empty 0 -10 0 12 #fcfcfc #000000 #000000;
#X obj 1781 815 bng 19 250 50 0 empty empty empty 0 -10 0 12 #fcfcfc #000000 #000000;
#X obj 1803 815 tgl 19 0 empty empty empty 0 -10 0 12 #fcfcfc #000000 #000000 0 1;
#X obj 1781 842 spigot;
#X obj 1781 867 bng 19 250 50 0 empty empty empty 0 -10 0 12 #fcfcfc #000000 #000000;
#X obj 1839 814 bng 19 250 50 0 empty empty empty 0 -10 0 12 #fcfcfc #000000 #000000;
#X obj 1861 814 tgl 19 0 empty empty empty 0 -10 0 12 #fcfcfc #000000 #000000 0 1;
#X obj 1839 841 spigot;
#X obj 1839 866 bng 19 250 50 0 empty empty empty 0 -10 0 12 #fcfcfc #000000 #000000;
#X obj 1890 814 bng 19 250 50 0 empty empty empty 0 -10 0 12 #fcfcfc #000000 #000000;
#X obj 1912 814 tgl 19 0 empty empty empty 0 -10 0 12 #fcfcfc #000000 #000000 0 1;
#X obj 1890 841 spigot;
#X obj 1890 866 bng 19 250 50 0 empty empty empty 0 -10 0 12 #fcfcfc #000000 #000000;
#X obj 1942 813 bng 19 250 50 0 empty empty empty 0 -10 0 12 #fcfcfc #000000 #000000;
#X obj 1964 813 tgl 19 0 empty empty empty 0 -10 0 12 #fcfcfc #000000 #000000 0 1;
#X obj 1942 840 spigot;
#X obj 1942 865 bng 19 250 50 0 empty empty empty 0 -10 0 12 #fcfcfc #000000 #000000;
#X obj 1994 814 bng 19 250 50 0 empty empty empty 0 -10 0 12 #fcfcfc #000000 #000000;
#X obj 2016 814 tgl 19 0 empty empty empty 0 -10 0 12 #fcfcfc #000000 #000000 0 1;
#X obj 1994 841 spigot;
#X obj 1994 866 bng 19 250 50 0 empty empty empty 0 -10 0 12 #fcfcfc #000000 #000000;
#X obj 2053 814 bng 19 250 50 0 empty empty empty 0 -10 0 12 #fcfcfc #000000 #000000;
#X obj 2075 814 tgl 19 0 empty empty empty 0 -10 0 12 #fcfcfc #000000 #000000 0 1;
#X obj 2053 841 spigot;
#X obj 2053 866 bng 19 250 50 0 empty empty empty 0 -10 0 12 #fcfcfc #000000 #000000;
#X obj 1672 787 r one;
#X obj 1727 787 r two;
#X obj 1781 787 r three;
#X obj 1839 786 r four;
#X obj 1890 786 r five;
#X obj 1942 785 r six;
#X obj 1994 786 r seven;
#X obj 2053 786 r eight;
#X obj 2109 810 bng 19 250 50 0 empty empty empty 0 -10 0 12 #fcfcfc #000000 #000000;
#X obj 2131 810 tgl 19 0 empty empty empty 0 -10 0 12 #fcfcfc #000000 #000000 0 1;
#X obj 2109 837 spigot;
#X obj 2109 862 bng 19 250 50 0 empty empty empty 0 -10 0 12 #fcfcfc #000000 #000000;
#X obj 2164 810 bng 19 250 50 0 empty empty empty 0 -10 0 12 #fcfcfc #000000 #000000;
#X obj 2186 810 tgl 19 0 empty empty empty 0 -10 0 12 #fcfcfc #000000 #000000 0 1;
#X obj 2164 837 spigot;
#X obj 2164 862 bng 19 250 50 0 empty empty empty 0 -10 0 12 #fcfcfc #000000 #000000;
#X obj 2218 810 bng 19 250 50 0 empty empty empty 0 -10 0 12 #fcfcfc #000000 #000000;
#X obj 2240 810 tgl 19 0 empty empty empty 0 -10 0 12 #fcfcfc #000000 #000000 0 1;
#X obj 2218 837 spigot;
#X obj 2218 862 bng 19 250 50 0 empty empty empty 0 -10 0 12 #fcfcfc #000000 #000000;
#X obj 2283 811 bng 19 250 50 0 empty empty empty 0 -10 0 12 #fcfcfc #000000 #000000;
#X obj 2305 811 tgl 19 0 empty empty empty 0 -10 0 12 #fcfcfc #000000 #000000 0 1;
#X obj 2283 838 spigot;
#X obj 2283 863 bng 19 250 50 0 empty empty empty 0 -10 0 12 #fcfcfc #000000 #000000;
#X obj 2353 808 bng 19 250 50 0 empty empty empty 0 -10 0 12 #fcfcfc #000000 #000000;
#X obj 2375 808 tgl 19 0 empty empty empty 0 -10 0 12 #fcfcfc #000000 #000000 0 1;
#X obj 2353 835 spigot;
#X obj 2353 860 bng 19 250 50 0 empty empty empty 0 -10 0 12 #fcfcfc #000000 #000000;
#X obj 2433 807 bng 19 250 50 0 empty empty empty 0 -10 0 12 #fcfcfc #000000 #000000;
#X obj 2455 807 tgl 19 0 empty empty empty 0 -10 0 12 #fcfcfc #000000 #000000 0 1;
#X obj 2433 834 spigot;
#X obj 2433 859 bng 19 250 50 0 empty empty empty 0 -10 0 12 #fcfcfc #000000 #000000;
#X obj 2513 809 bng 19 250 50 0 empty empty empty 0 -10 0 12 #fcfcfc #000000 #000000;
#X obj 2535 809 tgl 19 0 empty empty empty 0 -10 0 12 #fcfcfc #000000 #000000 0 1;
#X obj 2513 836 spigot;
#X obj 2513 861 bng 19 250 50 0 empty empty empty 0 -10 0 12 #fcfcfc #000000 #000000;
#X obj 2596 807 bng 19 250 50 0 empty empty empty 0 -10 0 12 #fcfcfc #000000 #000000;
#X obj 2618 807 tgl 19 0 empty empty empty 0 -10 0 12 #fcfcfc #000000 #000000 0 1;
#X obj 2596 834 spigot;
#X obj 2596 859 bng 19 250 50 0 empty empty empty 0 -10 0 12 #fcfcfc #000000 #000000;
#X obj 2109 782 r nine;
#X obj 2164 782 r ten;
#X obj 2218 787 r eleven;
#X obj 2283 783 r twelve;
#X obj 2353 780 r thirteen;
#X obj 2433 779 r fourteen;
#X obj 2513 781 r fifteen;
#X obj 2596 779 r sixteen;
#X obj 1672 920 s white;
#X obj 1200 1037 r white;
#X floatatom 1526 1063 5 0 0 0 - - - 0;
#X floatatom 1333 1084 5 0 0 0 - - - 0;
#X obj 1333 1053 + 1;
#X obj 1383 1270 delay;
#X obj 1526 1028 r metroValue;
#X obj 1482 1448 bng 19 250 50 0 empty empty empty 0 -10 0 12 #fcfcfc #000000 #000000;
#X msg 1484 1484 0;
#X floatatom 1458 1568 5 0 0 0 - - - 0;
#X obj 691 1625 noise~;
#X obj 691 1686 *~;
#X msg 1195 1120 0.1;
#X obj 784 1680 t b;
#X obj 811 1731 /;
#X floatatom 863 1766 5 0 0 0 - - - 0;
#X obj 783 1555 loadbang;
#X msg 783 1579 1;
#X obj 853 1554 r white;
#X obj 220 1236 r click;
#N canvas 797 595 965 614 randomPanner 0;
#X obj 44 61 inlet~ signal;
#X floatatom 149 110 5 0 0 0 - - - 0;
#X obj 149 133 + 0.75;
#X msg 149 157 \$1 10;
#X obj 149 181 line~;
#X obj 151 210 cos~;
#X obj 132 247 *~;
#X msg 98 158 \$1 10;
#X obj 98 182 line~;
#X obj 99 210 cos~;
#X obj 132 271 outlet~ right;
#X obj 30 246 *~;
#X obj 30 270 outlet~ left;
#X obj 150 86 / 4;
#X floatatom 284 94 5 0 0 0 - - - 0;
#X obj 149 62 inlet control;
#X connect 0 0 6 0;
#X connect 0 0 11 0;
#X connect 1 0 2 0;
#X connect 1 0 7 0;
#X connect 2 0 3 0;
#X connect 3 0 4 0;
#X connect 4 0 5 0;
#X connect 5 0 6 1;
#X connect 6 0 10 0;
#X connect 7 0 8 0;
#X connect 8 0 9 0;
#X connect 9 0 11 1;
#X connect 11 0 12 0;
#X connect 13 0 1 0;
#X connect 15 0 13 0;
#X connect 15 0 14 0;
#X restore 606 1796 pd randomPanner;
#X obj 162 1391 random 5;
#X obj 822 1636 random 5;
#X obj 1648 1176 sel 1;
#X obj 1699 1176 sel 2;
#X obj 1747 1176 sel 3;
#X obj 1798 1176 sel 4;
#X obj 1849 1178 sel 5;
#X obj 1641 1303 expr $f1 / $f2;
#X msg 1806 1220 2;
#X msg 1858 1221 1;
#X floatatom 1408 1187 5 0 0 0 - - - 0;
#X floatatom 1690 1256 5 0 0 0 - - - 0;
#X obj 1201 1071 t b b b b;
#X msg 1649 1214 8;
#X msg 1704 1216 4;
#X msg 1755 1220 3;
#X obj 1674 624 r generate;
#X obj 1674 648 bng 19 250 50 0 empty empty empty 0 -10 0 12 #fcfcfc #000000 #000000;
#X obj 1674 671 random 100;
#X floatatom 1674 696 5 0 0 0 - - - 0;
#X obj 1761 621 r generate;
#X obj 1761 645 bng 19 250 50 0 empty empty empty 0 -10 0 12 #fcfcfc #000000 #000000;
#X obj 1761 668 random 100;
#X floatatom 1761 693 5 0 0 0 - - - 0;
#X obj 1847 622 r generate;
#X obj 1847 646 bng 19 250 50 0 empty empty empty 0 -10 0 12 #fcfcfc #000000 #000000;
#X obj 1847 669 random 100;
#X floatatom 1847 694 5 0 0 0 - - - 0;
#X obj 1937 616 r generate;
#X obj 1937 640 bng 19 250 50 0 empty empty empty 0 -10 0 12 #fcfcfc #000000 #000000;
#X obj 1937 663 random 100;
#X floatatom 1937 688 5 0 0 0 - - - 0;
#X obj 2025 619 r generate;
#X obj 2025 643 bng 19 250 50 0 empty empty empty 0 -10 0 12 #fcfcfc #000000 #000000;
#X obj 2025 666 random 100;
#X floatatom 2025 691 5 0 0 0 - - - 0;
#X obj 2115 614 r generate;
#X obj 2115 638 bng 19 250 50 0 empty empty empty 0 -10 0 12 #fcfcfc #000000 #000000;
#X obj 2115 661 random 100;
#X floatatom 2115 686 5 0 0 0 - - - 0;
#X obj 2204 611 r generate;
#X obj 2204 635 bng 19 250 50 0 empty empty empty 0 -10 0 12 #fcfcfc #000000 #000000;
#X obj 2204 658 random 100;
#X floatatom 2204 683 5 0 0 0 - - - 0;
#X obj 2294 612 r generate;
#X obj 2294 636 bng 19 250 50 0 empty empty empty 0 -10 0 12 #fcfcfc #000000 #000000;
#X obj 2294 659 random 100;
#X floatatom 2294 684 5 0 0 0 - - - 0;
#X obj 2382 607 r generate;
#X obj 2382 631 bng 19 250 50 0 empty empty empty 0 -10 0 12 #fcfcfc #000000 #000000;
#X obj 2382 654 random 100;
#X floatatom 2382 679 5 0 0 0 - - - 0;
#X obj 2466 606 r generate;
#X obj 2466 630 bng 19 250 50 0 empty empty empty 0 -10 0 12 #fcfcfc #000000 #000000;
#X obj 2466 653 random 100;
#X floatatom 2466 678 5 0 0 0 - - - 0;
#X obj 2563 610 r generate;
#X obj 2563 634 bng 19 250 50 0 empty empty empty 0 -10 0 12 #fcfcfc #000000 #000000;
#X obj 2563 657 random 100;
#X floatatom 2563 682 5 0 0 0 - - - 0;
#X obj 2644 608 r generate;
#X obj 2644 632 bng 19 250 50 0 empty empty empty 0 -10 0 12 #fcfcfc #000000 #000000;
#X obj 2644 655 random 100;
#X floatatom 2644 680 5 0 0 0 - - - 0;
#X obj 2726 607 r generate;
#X obj 2726 631 bng 19 250 50 0 empty empty empty 0 -10 0 12 #fcfcfc #000000 #000000;
#X obj 2726 654 random 100;
#X floatatom 2726 679 5 0 0 0 - - - 0;
#X obj 2812 608 r generate;
#X obj 2812 632 bng 19 250 50 0 empty empty empty 0 -10 0 12 #fcfcfc #000000 #000000;
#X obj 2812 655 random 100;
#X floatatom 2812 680 5 0 0 0 - - - 0;
#X obj 2893 609 r generate;
#X obj 2893 633 bng 19 250 50 0 empty empty empty 0 -10 0 12 #fcfcfc #000000 #000000;
#X obj 2893 656 random 100;
#X floatatom 2893 681 5 0 0 0 - - - 0;
#X obj 2975 606 r generate;
#X obj 2975 630 bng 19 250 50 0 empty empty empty 0 -10 0 12 #fcfcfc #000000 #000000;
#X obj 2975 653 random 100;
#X floatatom 2975 678 5 0 0 0 - - - 0;
#X obj 1675 417 vsl 19 162 0 100 0 0 empty empty empty 0 -9 0 12 #fcfcfc #000000 #000000 0 1;
#X obj 1675 721 <;
#X floatatom 1675 586 5 0 0 0 - - - 24;
#X obj 1760 416 vsl 19 162 0 100 0 0 empty empty empty 0 -9 0 12 #fcfcfc #000000 #000000 0 1;
#X floatatom 1760 585 5 0 0 0 - - - 24;
#X obj 1846 408 vsl 19 162 0 100 0 0 empty empty empty 0 -9 0 12 #fcfcfc #000000 #000000 0 1;
#X floatatom 1846 577 5 0 0 0 - - - 24;
#X obj 1927 391 vsl 19 162 0 100 0 0 empty empty empty 0 -9 0 12 #fcfcfc #000000 #000000 0 1;
#X floatatom 1931 576 5 0 0 0 - - - 24;
#X obj 2025 398 vsl 19 162 0 100 0 0 empty empty empty 0 -9 0 12 #fcfcfc #000000 #000000 0 1;
#X floatatom 2025 567 5 0 0 0 - - - 24;
#X obj 2110 397 vsl 19 162 0 100 0 0 empty empty empty 0 -9 0 12 #fcfcfc #000000 #000000 0 1;
#X floatatom 2110 566 5 0 0 0 - - - 24;
#X obj 2196 389 vsl 19 162 0 100 0 0 empty empty empty 0 -9 0 12 #fcfcfc #000000 #000000 0 1;
#X floatatom 2196 558 5 0 0 0 - - - 24;
#X obj 2291 373 vsl 19 162 0 100 0 0 empty empty empty 0 -9 0 12 #fcfcfc #000000 #000000 0 1;
#X floatatom 2281 557 5 0 0 0 - - - 24;
#X obj 2380 389 vsl 19 162 0 100 0 0 empty empty empty 0 -9 0 12 #fcfcfc #000000 #000000 0 1;
#X floatatom 2380 558 5 0 0 0 - - - 24;
#X obj 2466 374 vsl 19 162 0 100 0 0 empty empty empty 0 -9 0 12 #fcfcfc #000000 #000000 0 1;
#X floatatom 2466 543 5 0 0 0 - - - 24;
#X obj 2555 400 vsl 19 162 0 100 0 0 empty empty empty 0 -9 0 12 #fcfcfc #000000 #000000 0 1;
#X floatatom 2555 569 5 0 0 0 - - - 24;
#X obj 2640 400 vsl 19 162 0 100 0 0 empty empty empty 0 -9 0 12 #fcfcfc #000000 #000000 0 1;
#X floatatom 2640 568 5 0 0 0 - - - 24;
#X obj 2729 385 vsl 19 162 0 100 0 0 empty empty empty 0 -9 0 12 #fcfcfc #000000 #000000 0 1;
#X floatatom 2734 559 5 0 0 0 - - - 24;
#X obj 2819 389 vsl 19 162 0 100 0 0 empty empty empty 0 -9 0 12 #fcfcfc #000000 #000000 0 1;
#X floatatom 2819 558 5 0 0 0 - - - 24;
#X obj 2905 381 vsl 19 162 0 100 0 0 empty empty empty 0 -9 0 12 #fcfcfc #000000 #000000 0 1;
#X floatatom 2905 550 5 0 0 0 - - - 24;
#X obj 2990 380 vsl 19 162 0 100 0 0 empty empty empty 0 -9 0 12 #fcfcfc #000000 #000000 0 1;
#X floatatom 2990 549 5 0 0 0 - - - 24;
#X obj 1761 714 <;
#X obj 1847 715 <;
#X obj 1937 709 <;
#X obj 2025 712 <;
#X obj 2115 708 <;
#X obj 2204 704 <;
#X obj 2294 705 <;
#X obj 2382 700 <;
#X obj 2466 699 <;
#X obj 2563 703 <;
#X obj 2644 701 <;
#X obj 2726 700 <;
#X obj 2812 701 <;
#X obj 2893 702 <;
#X obj 2974 699 <;
#X obj 1894 1180 sel 6;
#X obj 1945 1182 sel 7;
#X msg 1902 1224 0.5;
#X msg 1954 1225 0.25;
#X obj 2306 1526 bng 19 250 50 0 empty empty empty 0 -10 0 12 #fcfcfc #000000 #000000;
#X obj 2328 1526 tgl 19 0 empty empty empty 0 -10 0 12 #fcfcfc #000000 #000000 0 1;
#X obj 2306 1553 spigot;
#X obj 2306 1578 bng 19 250 50 0 empty empty empty 0 -10 0 12 #fcfcfc #000000 #000000;
#X obj 2307 1631 s kick;
#X obj 2361 1526 bng 19 250 50 0 empty empty empty 0 -10 0 12 #fcfcfc #000000 #000000;
#X obj 2383 1526 tgl 19 0 empty empty empty 0 -10 0 12 #fcfcfc #000000 #000000 0 1;
#X obj 2361 1553 spigot;
#X obj 2361 1578 bng 19 250 50 0 empty empty empty 0 -10 0 12 #fcfcfc #000000 #000000;
#X obj 2415 1526 bng 19 250 50 0 empty empty empty 0 -10 0 12 #fcfcfc #000000 #000000;
#X obj 2437 1526 tgl 19 0 empty empty empty 0 -10 0 12 #fcfcfc #000000 #000000 0 1;
#X obj 2415 1553 spigot;
#X obj 2415 1578 bng 19 250 50 0 empty empty empty 0 -10 0 12 #fcfcfc #000000 #000000;
#X obj 2473 1525 bng 19 250 50 0 empty empty empty 0 -10 0 12 #fcfcfc #000000 #000000;
#X obj 2495 1525 tgl 19 0 empty empty empty 0 -10 0 12 #fcfcfc #000000 #000000 0 1;
#X obj 2473 1552 spigot;
#X obj 2473 1577 bng 19 250 50 0 empty empty empty 0 -10 0 12 #fcfcfc #000000 #000000;
#X obj 2524 1525 bng 19 250 50 0 empty empty empty 0 -10 0 12 #fcfcfc #000000 #000000;
#X obj 2546 1525 tgl 19 0 empty empty empty 0 -10 0 12 #fcfcfc #000000 #000000 0 1;
#X obj 2524 1552 spigot;
#X obj 2524 1577 bng 19 250 50 0 empty empty empty 0 -10 0 12 #fcfcfc #000000 #000000;
#X obj 2576 1524 bng 19 250 50 0 empty empty empty 0 -10 0 12 #fcfcfc #000000 #000000;
#X obj 2598 1524 tgl 19 0 empty empty empty 0 -10 0 12 #fcfcfc #000000 #000000 0 1;
#X obj 2576 1551 spigot;
#X obj 2576 1576 bng 19 250 50 0 empty empty empty 0 -10 0 12 #fcfcfc #000000 #000000;
#X obj 2628 1525 bng 19 250 50 0 empty empty empty 0 -10 0 12 #fcfcfc #000000 #000000;
#X obj 2650 1525 tgl 19 0 empty empty empty 0 -10 0 12 #fcfcfc #000000 #000000 0 1;
#X obj 2628 1552 spigot;
#X obj 2628 1577 bng 19 250 50 0 empty empty empty 0 -10 0 12 #fcfcfc #000000 #000000;
#X obj 2687 1525 bng 19 250 50 0 empty empty empty 0 -10 0 12 #fcfcfc #000000 #000000;
#X obj 2709 1525 tgl 19 0 empty empty empty 0 -10 0 12 #fcfcfc #000000 #000000 0 1;
#X obj 2687 1552 spigot;
#X obj 2687 1577 bng 19 250 50 0 empty empty empty 0 -10 0 12 #fcfcfc #000000 #000000;
#X obj 2306 1498 r one;
#X obj 2361 1498 r two;
#X obj 2415 1498 r three;
#X obj 2473 1497 r four;
#X obj 2524 1497 r five;
#X obj 2576 1496 r six;
#X obj 2628 1497 r seven;
#X obj 2687 1497 r eight;
#X obj 2743 1521 bng 19 250 50 0 empty empty empty 0 -10 0 12 #fcfcfc #000000 #000000;
#X obj 2765 1521 tgl 19 0 empty empty empty 0 -10 0 12 #fcfcfc #000000 #000000 0 1;
#X obj 2743 1548 spigot;
#X obj 2743 1573 bng 19 250 50 0 empty empty empty 0 -10 0 12 #fcfcfc #000000 #000000;
#X obj 2798 1521 bng 19 250 50 0 empty empty empty 0 -10 0 12 #fcfcfc #000000 #000000;
#X obj 2820 1521 tgl 19 0 empty empty empty 0 -10 0 12 #fcfcfc #000000 #000000 0 1;
#X obj 2798 1548 spigot;
#X obj 2798 1573 bng 19 250 50 0 empty empty empty 0 -10 0 12 #fcfcfc #000000 #000000;
#X obj 2852 1521 bng 19 250 50 0 empty empty empty 0 -10 0 12 #fcfcfc #000000 #000000;
#X obj 2874 1521 tgl 19 0 empty empty empty 0 -10 0 12 #fcfcfc #000000 #000000 0 1;
#X obj 2852 1548 spigot;
#X obj 2852 1573 bng 19 250 50 0 empty empty empty 0 -10 0 12 #fcfcfc #000000 #000000;
#X obj 2917 1522 bng 19 250 50 0 empty empty empty 0 -10 0 12 #fcfcfc #000000 #000000;
#X obj 2939 1522 tgl 19 0 empty empty empty 0 -10 0 12 #fcfcfc #000000 #000000 0 1;
#X obj 2917 1549 spigot;
#X obj 2917 1574 bng 19 250 50 0 empty empty empty 0 -10 0 12 #fcfcfc #000000 #000000;
#X obj 2987 1519 bng 19 250 50 0 empty empty empty 0 -10 0 12 #fcfcfc #000000 #000000;
#X obj 3009 1519 tgl 19 0 empty empty empty 0 -10 0 12 #fcfcfc #000000 #000000 0 1;
#X obj 2987 1546 spigot;
#X obj 2987 1571 bng 19 250 50 0 empty empty empty 0 -10 0 12 #fcfcfc #000000 #000000;
#X obj 3067 1518 bng 19 250 50 0 empty empty empty 0 -10 0 12 #fcfcfc #000000 #000000;
#X obj 3089 1518 tgl 19 0 empty empty empty 0 -10 0 12 #fcfcfc #000000 #000000 0 1;
#X obj 3067 1545 spigot;
#X obj 3067 1570 bng 19 250 50 0 empty empty empty 0 -10 0 12 #fcfcfc #000000 #000000;
#X obj 3147 1520 bng 19 250 50 0 empty empty empty 0 -10 0 12 #fcfcfc #000000 #000000;
#X obj 3169 1520 tgl 19 0 empty empty empty 0 -10 0 12 #fcfcfc #000000 #000000 0 1;
#X obj 3147 1547 spigot;
#X obj 3147 1572 bng 19 250 50 0 empty empty empty 0 -10 0 12 #fcfcfc #000000 #000000;
#X obj 3230 1518 bng 19 250 50 0 empty empty empty 0 -10 0 12 #fcfcfc #000000 #000000;
#X obj 3252 1518 tgl 19 0 empty empty empty 0 -10 0 12 #fcfcfc #000000 #000000 0 1;
#X obj 3230 1545 spigot;
#X obj 3230 1570 bng 19 250 50 0 empty empty empty 0 -10 0 12 #fcfcfc #000000 #000000;
#X obj 2743 1493 r nine;
#X obj 2798 1493 r ten;
#X obj 2846 1497 r eleven;
#X obj 2917 1494 r twelve;
#X obj 2987 1491 r thirteen;
#X obj 3067 1490 r fourteen;
#X obj 3147 1492 r fifteen;
#X obj 3230 1490 r sixteen;
#X obj 1904 1608 r kick;
#X obj 1904 1631 bng 19 250 50 0 empty empty empty 0 -10 0 12 #fcfcfc #000000 #000000;
#X obj 1903 1681 readsf~;
#X obj 811 1834 *~ 0.5;
#X msg 1900 1656 open dd_kick_midhit.wav \, 1;
#X obj 2299 1256 bng 19 250 50 0 empty empty empty 0 -10 0 12 #fcfcfc #000000 #000000;
#X obj 2321 1256 tgl 19 0 empty empty empty 0 -10 0 12 #fcfcfc #000000 #000000 0 1;
#X obj 2299 1283 spigot;
#X obj 2299 1308 bng 19 250 50 0 empty empty empty 0 -10 0 12 #fcfcfc #000000 #000000;
#X obj 2354 1256 bng 19 250 50 0 empty empty empty 0 -10 0 12 #fcfcfc #000000 #000000;
#X obj 2376 1256 tgl 19 0 empty empty empty 0 -10 0 12 #fcfcfc #000000 #000000 0 1;
#X obj 2354 1283 spigot;
#X obj 2354 1308 bng 19 250 50 0 empty empty empty 0 -10 0 12 #fcfcfc #000000 #000000;
#X obj 2408 1256 bng 19 250 50 0 empty empty empty 0 -10 0 12 #fcfcfc #000000 #000000;
#X obj 2430 1256 tgl 19 0 empty empty empty 0 -10 0 12 #fcfcfc #000000 #000000 0 1;
#X obj 2408 1283 spigot;
#X obj 2408 1308 bng 19 250 50 0 empty empty empty 0 -10 0 12 #fcfcfc #000000 #000000;
#X obj 2466 1255 bng 19 250 50 0 empty empty empty 0 -10 0 12 #fcfcfc #000000 #000000;
#X obj 2488 1255 tgl 19 0 empty empty empty 0 -10 0 12 #fcfcfc #000000 #000000 0 1;
#X obj 2466 1282 spigot;
#X obj 2466 1307 bng 19 250 50 0 empty empty empty 0 -10 0 12 #fcfcfc #000000 #000000;
#X obj 2517 1255 bng 19 250 50 0 empty empty empty 0 -10 0 12 #fcfcfc #000000 #000000;
#X obj 2539 1255 tgl 19 0 empty empty empty 0 -10 0 12 #fcfcfc #000000 #000000 0 1;
#X obj 2517 1282 spigot;
#X obj 2517 1307 bng 19 250 50 0 empty empty empty 0 -10 0 12 #fcfcfc #000000 #000000;
#X obj 2569 1254 bng 19 250 50 0 empty empty empty 0 -10 0 12 #fcfcfc #000000 #000000;
#X obj 2591 1254 tgl 19 0 empty empty empty 0 -10 0 12 #fcfcfc #000000 #000000 0 1;
#X obj 2569 1281 spigot;
#X obj 2569 1306 bng 19 250 50 0 empty empty empty 0 -10 0 12 #fcfcfc #000000 #000000;
#X obj 2621 1255 bng 19 250 50 0 empty empty empty 0 -10 0 12 #fcfcfc #000000 #000000;
#X obj 2643 1255 tgl 19 0 empty empty empty 0 -10 0 12 #fcfcfc #000000 #000000 0 1;
#X obj 2621 1282 spigot;
#X obj 2621 1307 bng 19 250 50 0 empty empty empty 0 -10 0 12 #fcfcfc #000000 #000000;
#X obj 2680 1255 bng 19 250 50 0 empty empty empty 0 -10 0 12 #fcfcfc #000000 #000000;
#X obj 2702 1255 tgl 19 0 empty empty empty 0 -10 0 12 #fcfcfc #000000 #000000 0 1;
#X obj 2680 1282 spigot;
#X obj 2680 1307 bng 19 250 50 0 empty empty empty 0 -10 0 12 #fcfcfc #000000 #000000;
#X obj 2299 1228 r one;
#X obj 2354 1228 r two;
#X obj 2408 1228 r three;
#X obj 2466 1227 r four;
#X obj 2517 1227 r five;
#X obj 2569 1226 r six;
#X obj 2621 1227 r seven;
#X obj 2680 1227 r eight;
#X obj 2736 1251 bng 19 250 50 0 empty empty empty 0 -10 0 12 #fcfcfc #000000 #000000;
#X obj 2758 1251 tgl 19 0 empty empty empty 0 -10 0 12 #fcfcfc #000000 #000000 0 1;
#X obj 2736 1278 spigot;
#X obj 2736 1303 bng 19 250 50 0 empty empty empty 0 -10 0 12 #fcfcfc #000000 #000000;
#X obj 2791 1251 bng 19 250 50 0 empty empty empty 0 -10 0 12 #fcfcfc #000000 #000000;
#X obj 2813 1251 tgl 19 0 empty empty empty 0 -10 0 12 #fcfcfc #000000 #000000 0 1;
#X obj 2791 1278 spigot;
#X obj 2791 1303 bng 19 250 50 0 empty empty empty 0 -10 0 12 #fcfcfc #000000 #000000;
#X obj 2845 1251 bng 19 250 50 0 empty empty empty 0 -10 0 12 #fcfcfc #000000 #000000;
#X obj 2867 1251 tgl 19 0 empty empty empty 0 -10 0 12 #fcfcfc #000000 #000000 0 1;
#X obj 2845 1278 spigot;
#X obj 2845 1303 bng 19 250 50 0 empty empty empty 0 -10 0 12 #fcfcfc #000000 #000000;
#X obj 2910 1252 bng 19 250 50 0 empty empty empty 0 -10 0 12 #fcfcfc #000000 #000000;
#X obj 2932 1252 tgl 19 0 empty empty empty 0 -10 0 12 #fcfcfc #000000 #000000 0 1;
#X obj 2910 1279 spigot;
#X obj 2910 1304 bng 19 250 50 0 empty empty empty 0 -10 0 12 #fcfcfc #000000 #000000;
#X obj 2980 1249 bng 19 250 50 0 empty empty empty 0 -10 0 12 #fcfcfc #000000 #000000;
#X obj 3002 1249 tgl 19 0 empty empty empty 0 -10 0 12 #fcfcfc #000000 #000000 0 1;
#X obj 2980 1276 spigot;
#X obj 2980 1301 bng 19 250 50 0 empty empty empty 0 -10 0 12 #fcfcfc #000000 #000000;
#X obj 3060 1248 bng 19 250 50 0 empty empty empty 0 -10 0 12 #fcfcfc #000000 #000000;
#X obj 3082 1248 tgl 19 0 empty empty empty 0 -10 0 12 #fcfcfc #000000 #000000 0 1;
#X obj 3060 1275 spigot;
#X obj 3060 1300 bng 19 250 50 0 empty empty empty 0 -10 0 12 #fcfcfc #000000 #000000;
#X obj 3140 1250 bng 19 250 50 0 empty empty empty 0 -10 0 12 #fcfcfc #000000 #000000;
#X obj 3162 1250 tgl 19 0 empty empty empty 0 -10 0 12 #fcfcfc #000000 #000000 0 1;
#X obj 3140 1277 spigot;
#X obj 3140 1302 bng 19 250 50 0 empty empty empty 0 -10 0 12 #fcfcfc #000000 #000000;
#X obj 3223 1248 bng 19 250 50 0 empty empty empty 0 -10 0 12 #fcfcfc #000000 #000000;
#X obj 3245 1248 tgl 19 0 empty empty empty 0 -10 0 12 #fcfcfc #000000 #000000 0 1;
#X obj 3223 1275 spigot;
#X obj 3223 1300 bng 19 250 50 0 empty empty empty 0 -10 0 12 #fcfcfc #000000 #000000;
#X obj 2736 1223 r nine;
#X obj 2791 1223 r ten;
#X obj 2845 1228 r eleven;
#X obj 2910 1224 r twelve;
#X obj 2980 1221 r thirteen;
#X obj 3060 1220 r fourteen;
#X obj 3140 1222 r fifteen;
#X obj 3223 1220 r sixteen;
#X obj 2300 1362 s snare, f 10;
#X msg 2001 1228 0.125;
#X msg 2053 1229 16;
#X obj 1993 1184 sel 8;
#X obj 2044 1186 sel 9;
#X obj 1339 1033 random 9;
#X obj 732 2005 writesf~ 2;
#X msg 937 1908 start;
#X msg 955 1934 stop;
#X msg 918 1864 open finalExport.wav;
#X connect 0 0 2 0;
#X connect 2 0 11 0;
#X connect 3 0 2 1;
#X connect 4 0 5 0;
#X connect 5 0 6 0;
#X connect 6 0 2 2;
#X connect 7 0 9 0;
#X connect 8 0 6 0;
#X connect 9 0 3 0;
#X connect 10 0 1 0;
#X connect 10 0 683 0;
#X connect 10 1 1 1;
#X connect 10 1 683 1;
#X connect 11 0 10 0;
#X connect 11 0 226 0;
#X connect 12 0 13 0;
#X connect 13 0 14 0;
#X connect 14 0 10 1;
#X connect 15 0 16 0;
#X connect 16 0 13 0;
#X connect 17 0 153 0;
#X connect 18 0 19 0;
#X connect 19 0 21 0;
#X connect 19 0 87 0;
#X connect 19 0 223 0;
#X connect 20 0 23 0;
#X connect 20 0 24 0;
#X connect 20 0 25 0;
#X connect 20 0 26 0;
#X connect 20 0 27 0;
#X connect 20 0 28 0;
#X connect 20 0 29 0;
#X connect 20 0 30 0;
#X connect 20 0 128 0;
#X connect 20 0 129 0;
#X connect 20 0 130 0;
#X connect 20 0 131 0;
#X connect 20 0 132 0;
#X connect 20 0 133 0;
#X connect 20 0 134 0;
#X connect 20 0 151 0;
#X connect 21 0 19 1;
#X connect 22 0 20 0;
#X connect 23 0 31 0;
#X connect 24 0 32 0;
#X connect 25 0 33 0;
#X connect 26 0 34 0;
#X connect 27 0 35 0;
#X connect 28 0 36 0;
#X connect 29 0 37 0;
#X connect 30 0 38 0;
#X connect 31 0 39 0;
#X connect 32 0 45 0;
#X connect 33 0 46 0;
#X connect 34 0 44 0;
#X connect 35 0 43 0;
#X connect 36 0 42 0;
#X connect 37 0 41 0;
#X connect 38 0 40 0;
#X connect 47 0 49 0;
#X connect 48 0 49 1;
#X connect 49 0 50 0;
#X connect 50 0 224 0;
#X connect 51 0 53 0;
#X connect 52 0 53 1;
#X connect 53 0 54 0;
#X connect 54 0 224 0;
#X connect 55 0 57 0;
#X connect 56 0 57 1;
#X connect 57 0 58 0;
#X connect 58 0 224 0;
#X connect 59 0 61 0;
#X connect 60 0 61 1;
#X connect 61 0 62 0;
#X connect 62 0 224 0;
#X connect 63 0 65 0;
#X connect 64 0 65 1;
#X connect 65 0 66 0;
#X connect 66 0 224 0;
#X connect 67 0 69 0;
#X connect 68 0 69 1;
#X connect 69 0 70 0;
#X connect 70 0 224 0;
#X connect 71 0 73 0;
#X connect 72 0 73 1;
#X connect 73 0 74 0;
#X connect 74 0 224 0;
#X connect 75 0 77 0;
#X connect 76 0 77 1;
#X connect 77 0 78 0;
#X connect 78 0 224 0;
#X connect 79 0 47 0;
#X connect 80 0 51 0;
#X connect 81 0 55 0;
#X connect 82 0 59 0;
#X connect 83 0 63 0;
#X connect 84 0 67 0;
#X connect 85 0 71 0;
#X connect 86 0 75 0;
#X connect 87 0 22 0;
#X connect 88 0 90 0;
#X connect 89 0 90 1;
#X connect 90 0 91 0;
#X connect 91 0 224 0;
#X connect 92 0 94 0;
#X connect 93 0 94 1;
#X connect 94 0 95 0;
#X connect 95 0 224 0;
#X connect 96 0 98 0;
#X connect 97 0 98 1;
#X connect 98 0 99 0;
#X connect 99 0 224 0;
#X connect 100 0 102 0;
#X connect 101 0 102 1;
#X connect 102 0 103 0;
#X connect 103 0 224 0;
#X connect 104 0 106 0;
#X connect 105 0 106 1;
#X connect 106 0 107 0;
#X connect 107 0 224 0;
#X connect 108 0 110 0;
#X connect 109 0 110 1;
#X connect 110 0 111 0;
#X connect 111 0 224 0;
#X connect 112 0 114 0;
#X connect 113 0 114 1;
#X connect 114 0 115 0;
#X connect 115 0 224 0;
#X connect 116 0 118 0;
#X connect 117 0 118 1;
#X connect 118 0 119 0;
#X connect 119 0 224 0;
#X connect 120 0 135 0;
#X connect 121 0 136 0;
#X connect 122 0 137 0;
#X connect 123 0 138 0;
#X connect 124 0 139 0;
#X connect 125 0 140 0;
#X connect 126 0 141 0;
#X connect 127 0 142 0;
#X connect 128 0 120 0;
#X connect 129 0 121 0;
#X connect 130 0 122 0;
#X connect 131 0 123 0;
#X connect 132 0 125 0;
#X connect 133 0 126 0;
#X connect 134 0 127 0;
#X connect 143 0 88 0;
#X connect 144 0 92 0;
#X connect 145 0 96 0;
#X connect 146 0 100 0;
#X connect 147 0 104 0;
#X connect 148 0 108 0;
#X connect 149 0 112 0;
#X connect 150 0 116 0;
#X connect 151 0 124 0;
#X connect 153 0 18 0;
#X connect 154 0 155 0;
#X connect 155 0 156 0;
#X connect 156 0 157 0;
#X connect 157 0 158 0;
#X connect 159 0 160 0;
#X connect 160 0 161 0;
#X connect 161 0 162 0;
#X connect 162 0 230 0;
#X connect 163 0 164 0;
#X connect 164 0 165 0;
#X connect 165 0 166 0;
#X connect 166 0 262 0;
#X connect 167 0 168 0;
#X connect 168 0 169 0;
#X connect 169 0 170 0;
#X connect 170 0 263 0;
#X connect 171 0 172 0;
#X connect 172 0 173 0;
#X connect 173 0 174 0;
#X connect 174 0 264 0;
#X connect 175 0 176 0;
#X connect 176 0 177 0;
#X connect 177 0 178 0;
#X connect 178 0 265 0;
#X connect 179 0 180 0;
#X connect 180 0 181 0;
#X connect 181 0 182 0;
#X connect 182 0 266 0;
#X connect 183 0 184 0;
#X connect 184 0 185 0;
#X connect 185 0 186 0;
#X connect 186 0 267 0;
#X connect 187 0 188 0;
#X connect 188 0 189 0;
#X connect 189 0 190 0;
#X connect 190 0 268 0;
#X connect 191 0 192 0;
#X connect 192 0 193 0;
#X connect 193 0 194 0;
#X connect 194 0 269 0;
#X connect 195 0 196 0;
#X connect 196 0 197 0;
#X connect 197 0 198 0;
#X connect 198 0 270 0;
#X connect 199 0 200 0;
#X connect 200 0 201 0;
#X connect 201 0 202 0;
#X connect 202 0 271 0;
#X connect 203 0 204 0;
#X connect 204 0 205 0;
#X connect 205 0 206 0;
#X connect 206 0 272 0;
#X connect 207 0 208 0;
#X connect 208 0 209 0;
#X connect 209 0 210 0;
#X connect 210 0 273 0;
#X connect 211 0 212 0;
#X connect 212 0 213 0;
#X connect 213 0 214 0;
#X connect 214 0 274 0;
#X connect 215 0 216 0;
#X connect 216 0 217 0;
#X connect 217 0 218 0;
#X connect 218 0 275 0;
#X connect 219 0 220 0;
#X connect 220 0 221 0;
#X connect 221 0 222 0;
#X connect 222 0 276 0;
#X connect 223 0 154 0;
#X connect 225 0 153 1;
#X connect 225 0 277 0;
#X connect 227 0 226 0;
#X connect 228 0 227 0;
#X connect 229 0 231 0;
#X connect 230 0 48 0;
#X connect 231 0 230 1;
#X connect 232 0 233 0;
#X connect 233 0 262 1;
#X connect 234 0 235 0;
#X connect 235 0 263 1;
#X connect 236 0 237 0;
#X connect 237 0 264 1;
#X connect 238 0 239 0;
#X connect 239 0 265 1;
#X connect 240 0 241 0;
#X connect 241 0 266 1;
#X connect 242 0 243 0;
#X connect 243 0 267 1;
#X connect 244 0 245 0;
#X connect 245 0 268 1;
#X connect 246 0 247 0;
#X connect 247 0 269 1;
#X connect 248 0 249 0;
#X connect 249 0 270 1;
#X connect 250 0 251 0;
#X connect 251 0 271 1;
#X connect 252 0 253 0;
#X connect 253 0 272 1;
#X connect 254 0 255 0;
#X connect 255 0 273 1;
#X connect 256 0 257 0;
#X connect 257 0 274 1;
#X connect 258 0 259 0;
#X connect 259 0 275 1;
#X connect 260 0 261 0;
#X connect 261 0 276 1;
#X connect 262 0 52 0;
#X connect 263 0 56 0;
#X connect 264 0 60 0;
#X connect 265 0 64 0;
#X connect 266 0 68 0;
#X connect 267 0 72 0;
#X connect 268 0 76 0;
#X connect 269 0 89 0;
#X connect 270 0 93 0;
#X connect 271 0 97 0;
#X connect 272 0 101 0;
#X connect 273 0 105 0;
#X connect 274 0 109 0;
#X connect 275 0 113 0;
#X connect 276 0 117 0;
#X connect 278 0 280 0;
#X connect 279 0 280 1;
#X connect 280 0 281 0;
#X connect 281 0 358 0;
#X connect 282 0 284 0;
#X connect 283 0 284 1;
#X connect 284 0 285 0;
#X connect 285 0 358 0;
#X connect 286 0 288 0;
#X connect 287 0 288 1;
#X connect 288 0 289 0;
#X connect 289 0 358 0;
#X connect 290 0 292 0;
#X connect 291 0 292 1;
#X connect 292 0 293 0;
#X connect 293 0 358 0;
#X connect 294 0 296 0;
#X connect 295 0 296 1;
#X connect 296 0 297 0;
#X connect 297 0 358 0;
#X connect 298 0 300 0;
#X connect 299 0 300 1;
#X connect 300 0 301 0;
#X connect 301 0 358 0;
#X connect 302 0 304 0;
#X connect 303 0 304 1;
#X connect 304 0 305 0;
#X connect 305 0 358 0;
#X connect 306 0 308 0;
#X connect 307 0 308 1;
#X connect 308 0 309 0;
#X connect 309 0 358 0;
#X connect 310 0 278 0;
#X connect 311 0 282 0;
#X connect 312 0 286 0;
#X connect 313 0 290 0;
#X connect 314 0 294 0;
#X connect 315 0 298 0;
#X connect 316 0 302 0;
#X connect 317 0 306 0;
#X connect 318 0 320 0;
#X connect 319 0 320 1;
#X connect 320 0 321 0;
#X connect 321 0 358 0;
#X connect 322 0 324 0;
#X connect 323 0 324 1;
#X connect 324 0 325 0;
#X connect 325 0 358 0;
#X connect 326 0 328 0;
#X connect 327 0 328 1;
#X connect 328 0 329 0;
#X connect 329 0 358 0;
#X connect 330 0 332 0;
#X connect 331 0 332 1;
#X connect 332 0 333 0;
#X connect 333 0 358 0;
#X connect 334 0 336 0;
#X connect 335 0 336 1;
#X connect 336 0 337 0;
#X connect 337 0 358 0;
#X connect 338 0 340 0;
#X connect 339 0 340 1;
#X connect 340 0 341 0;
#X connect 341 0 358 0;
#X connect 342 0 344 0;
#X connect 343 0 344 1;
#X connect 344 0 345 0;
#X connect 345 0 358 0;
#X connect 346 0 348 0;
#X connect 347 0 348 1;
#X connect 348 0 349 0;
#X connect 349 0 358 0;
#X connect 350 0 318 0;
#X connect 351 0 322 0;
#X connect 352 0 326 0;
#X connect 353 0 330 0;
#X connect 354 0 334 0;
#X connect 355 0 338 0;
#X connect 356 0 342 0;
#X connect 357 0 346 0;
#X connect 359 0 391 0;
#X connect 360 0 386 0;
#X connect 361 0 381 0;
#X connect 361 0 382 0;
#X connect 361 0 383 0;
#X connect 361 0 384 0;
#X connect 361 0 385 0;
#X connect 361 0 508 0;
#X connect 361 0 680 0;
#X connect 361 0 681 0;
#X connect 362 0 361 0;
#X connect 363 0 365 0;
#X connect 364 0 360 0;
#X connect 365 0 366 0;
#X connect 365 0 386 0;
#X connect 366 0 367 0;
#X connect 367 0 369 1;
#X connect 368 0 369 0;
#X connect 369 0 378 0;
#X connect 370 0 367 0;
#X connect 371 0 372 0;
#X connect 372 0 373 0;
#X connect 373 0 378 1;
#X connect 374 0 375 0;
#X connect 375 0 372 0;
#X connect 376 0 380 0;
#X connect 377 0 7 0;
#X connect 377 0 0 0;
#X connect 377 0 379 0;
#X connect 378 0 1 0;
#X connect 378 0 683 0;
#X connect 378 1 1 1;
#X connect 378 1 683 1;
#X connect 379 0 12 0;
#X connect 379 0 13 1;
#X connect 380 0 371 0;
#X connect 380 0 372 1;
#X connect 381 0 392 0;
#X connect 382 0 393 0;
#X connect 383 0 394 0;
#X connect 384 0 387 0;
#X connect 385 0 388 0;
#X connect 386 0 389 0;
#X connect 387 0 390 0;
#X connect 388 0 390 0;
#X connect 389 0 363 1;
#X connect 390 0 386 1;
#X connect 391 0 363 0;
#X connect 391 1 386 0;
#X connect 391 2 682 0;
#X connect 391 3 370 0;
#X connect 392 0 390 0;
#X connect 393 0 390 0;
#X connect 394 0 390 0;
#X connect 395 0 396 0;
#X connect 396 0 397 0;
#X connect 397 0 398 0;
#X connect 398 0 460 0;
#X connect 399 0 400 0;
#X connect 400 0 401 0;
#X connect 401 0 402 0;
#X connect 402 0 492 0;
#X connect 403 0 404 0;
#X connect 404 0 405 0;
#X connect 405 0 406 0;
#X connect 406 0 493 0;
#X connect 407 0 408 0;
#X connect 408 0 409 0;
#X connect 409 0 410 0;
#X connect 410 0 494 0;
#X connect 411 0 412 0;
#X connect 412 0 413 0;
#X connect 413 0 414 0;
#X connect 414 0 495 0;
#X connect 415 0 416 0;
#X connect 416 0 417 0;
#X connect 417 0 418 0;
#X connect 418 0 496 0;
#X connect 419 0 420 0;
#X connect 420 0 421 0;
#X connect 421 0 422 0;
#X connect 422 0 497 0;
#X connect 423 0 424 0;
#X connect 424 0 425 0;
#X connect 425 0 426 0;
#X connect 426 0 498 0;
#X connect 427 0 428 0;
#X connect 428 0 429 0;
#X connect 429 0 430 0;
#X connect 430 0 499 0;
#X connect 431 0 432 0;
#X connect 432 0 433 0;
#X connect 433 0 434 0;
#X connect 434 0 500 0;
#X connect 435 0 436 0;
#X connect 436 0 437 0;
#X connect 437 0 438 0;
#X connect 438 0 501 0;
#X connect 439 0 440 0;
#X connect 440 0 441 0;
#X connect 441 0 442 0;
#X connect 442 0 502 0;
#X connect 443 0 444 0;
#X connect 444 0 445 0;
#X connect 445 0 446 0;
#X connect 446 0 503 0;
#X connect 447 0 448 0;
#X connect 448 0 449 0;
#X connect 449 0 450 0;
#X connect 450 0 504 0;
#X connect 451 0 452 0;
#X connect 452 0 453 0;
#X connect 453 0 454 0;
#X connect 454 0 505 0;
#X connect 455 0 456 0;
#X connect 456 0 457 0;
#X connect 457 0 458 0;
#X connect 458 0 506 0;
#X connect 459 0 461 0;
#X connect 460 0 279 0;
#X connect 461 0 460 1;
#X connect 462 0 463 0;
#X connect 463 0 492 1;
#X connect 464 0 465 0;
#X connect 465 0 493 1;
#X connect 466 0 467 0;
#X connect 467 0 494 1;
#X connect 468 0 469 0;
#X connect 469 0 495 1;
#X connect 470 0 471 0;
#X connect 471 0 496 1;
#X connect 472 0 473 0;
#X connect 473 0 497 1;
#X connect 474 0 475 0;
#X connect 475 0 498 1;
#X connect 476 0 477 0;
#X connect 477 0 499 1;
#X connect 478 0 479 0;
#X connect 479 0 500 1;
#X connect 480 0 481 0;
#X connect 481 0 501 1;
#X connect 482 0 483 0;
#X connect 483 0 502 1;
#X connect 484 0 485 0;
#X connect 485 0 503 1;
#X connect 486 0 487 0;
#X connect 487 0 504 1;
#X connect 488 0 489 0;
#X connect 489 0 505 1;
#X connect 490 0 491 0;
#X connect 491 0 506 1;
#X connect 492 0 283 0;
#X connect 493 0 287 0;
#X connect 494 0 291 0;
#X connect 495 0 295 0;
#X connect 496 0 299 0;
#X connect 497 0 303 0;
#X connect 498 0 307 0;
#X connect 499 0 319 0;
#X connect 500 0 323 0;
#X connect 501 0 327 0;
#X connect 502 0 331 0;
#X connect 503 0 335 0;
#X connect 504 0 339 0;
#X connect 505 0 343 0;
#X connect 506 0 347 0;
#X connect 507 0 509 0;
#X connect 508 0 510 0;
#X connect 511 0 513 0;
#X connect 512 0 513 1;
#X connect 513 0 514 0;
#X connect 514 0 515 0;
#X connect 516 0 518 0;
#X connect 517 0 518 1;
#X connect 518 0 519 0;
#X connect 519 0 515 0;
#X connect 520 0 522 0;
#X connect 521 0 522 1;
#X connect 522 0 523 0;
#X connect 523 0 515 0;
#X connect 524 0 526 0;
#X connect 525 0 526 1;
#X connect 526 0 527 0;
#X connect 527 0 515 0;
#X connect 528 0 530 0;
#X connect 529 0 530 1;
#X connect 530 0 531 0;
#X connect 531 0 515 0;
#X connect 532 0 534 0;
#X connect 533 0 534 1;
#X connect 534 0 535 0;
#X connect 535 0 515 0;
#X connect 536 0 538 0;
#X connect 537 0 538 1;
#X connect 538 0 539 0;
#X connect 539 0 515 0;
#X connect 540 0 542 0;
#X connect 541 0 542 1;
#X connect 542 0 543 0;
#X connect 543 0 515 0;
#X connect 544 0 511 0;
#X connect 545 0 516 0;
#X connect 546 0 520 0;
#X connect 547 0 524 0;
#X connect 548 0 528 0;
#X connect 549 0 532 0;
#X connect 550 0 536 0;
#X connect 551 0 540 0;
#X connect 552 0 554 0;
#X connect 553 0 554 1;
#X connect 554 0 555 0;
#X connect 555 0 515 0;
#X connect 556 0 558 0;
#X connect 557 0 558 1;
#X connect 558 0 559 0;
#X connect 559 0 515 0;
#X connect 560 0 562 0;
#X connect 561 0 562 1;
#X connect 562 0 563 0;
#X connect 563 0 515 0;
#X connect 564 0 566 0;
#X connect 565 0 566 1;
#X connect 566 0 567 0;
#X connect 567 0 515 0;
#X connect 568 0 570 0;
#X connect 569 0 570 1;
#X connect 570 0 571 0;
#X connect 571 0 515 0;
#X connect 572 0 574 0;
#X connect 573 0 574 1;
#X connect 574 0 575 0;
#X connect 575 0 515 0;
#X connect 576 0 578 0;
#X connect 577 0 578 1;
#X connect 578 0 579 0;
#X connect 579 0 515 0;
#X connect 580 0 582 0;
#X connect 581 0 582 1;
#X connect 582 0 583 0;
#X connect 583 0 515 0;
#X connect 584 0 552 0;
#X connect 585 0 556 0;
#X connect 586 0 560 0;
#X connect 587 0 564 0;
#X connect 588 0 568 0;
#X connect 589 0 572 0;
#X connect 590 0 576 0;
#X connect 591 0 580 0;
#X connect 592 0 593 0;
#X connect 593 0 596 0;
#X connect 594 0 595 0;
#X connect 595 0 1 1;
#X connect 595 0 1 0;
#X connect 595 0 683 0;
#X connect 595 0 683 1;
#X connect 596 0 594 0;
#X connect 597 0 599 0;
#X connect 598 0 599 1;
#X connect 599 0 600 0;
#X connect 600 0 677 0;
#X connect 601 0 603 0;
#X connect 602 0 603 1;
#X connect 603 0 604 0;
#X connect 604 0 677 0;
#X connect 605 0 607 0;
#X connect 606 0 607 1;
#X connect 607 0 608 0;
#X connect 608 0 677 0;
#X connect 609 0 611 0;
#X connect 610 0 611 1;
#X connect 611 0 612 0;
#X connect 612 0 677 0;
#X connect 613 0 615 0;
#X connect 614 0 615 1;
#X connect 615 0 616 0;
#X connect 616 0 677 0;
#X connect 617 0 619 0;
#X connect 618 0 619 1;
#X connect 619 0 620 0;
#X connect 620 0 677 0;
#X connect 621 0 623 0;
#X connect 622 0 623 1;
#X connect 623 0 624 0;
#X connect 624 0 677 0;
#X connect 625 0 627 0;
#X connect 626 0 627 1;
#X connect 627 0 628 0;
#X connect 628 0 677 0;
#X connect 629 0 597 0;
#X connect 630 0 601 0;
#X connect 631 0 605 0;
#X connect 632 0 609 0;
#X connect 633 0 613 0;
#X connect 634 0 617 0;
#X connect 635 0 621 0;
#X connect 636 0 625 0;
#X connect 637 0 639 0;
#X connect 638 0 639 1;
#X connect 639 0 640 0;
#X connect 640 0 677 0;
#X connect 641 0 643 0;
#X connect 642 0 643 1;
#X connect 643 0 644 0;
#X connect 644 0 677 0;
#X connect 645 0 647 0;
#X connect 646 0 647 1;
#X connect 647 0 648 0;
#X connect 648 0 677 0;
#X connect 649 0 651 0;
#X connect 650 0 651 1;
#X connect 651 0 652 0;
#X connect 652 0 677 0;
#X connect 653 0 655 0;
#X connect 654 0 655 1;
#X connect 655 0 656 0;
#X connect 656 0 677 0;
#X connect 657 0 659 0;
#X connect 658 0 659 1;
#X connect 659 0 660 0;
#X connect 660 0 677 0;
#X connect 661 0 663 0;
#X connect 662 0 663 1;
#X connect 663 0 664 0;
#X connect 664 0 677 0;
#X connect 665 0 667 0;
#X connect 666 0 667 1;
#X connect 667 0 668 0;
#X connect 668 0 677 0;
#X connect 669 0 637 0;
#X connect 670 0 641 0;
#X connect 671 0 645 0;
#X connect 672 0 649 0;
#X connect 673 0 653 0;
#X connect 674 0 657 0;
#X connect 675 0 661 0;
#X connect 676 0 665 0;
#X connect 680 0 678 0;
#X connect 681 0 679 0;
#X connect 682 0 362 0;
#X connect 684 0 683 0;
#X connect 685 0 683 0;
#X connect 686 0 683 0;
